<mxfile host="65bd71144e">
    <diagram name="Página-1" id="0JRiGGj8Sx9LPcSSxncM">
        <mxGraphModel dx="450" dy="1313" grid="1" gridSize="10" guides="1" tooltips="1" connect="1" arrows="1" fold="1" page="1" pageScale="1" pageWidth="1169" pageHeight="827" math="0" shadow="0">
            <root>
                <mxCell id="0"/>
                <mxCell id="1" parent="0"/>
                <mxCell id="jrKel4YQa3fyWZv_Hwt1-2" value="&lt;font style=&quot;font-size: 18px;&quot;&gt;&lt;font face=&quot;Verdana&quot;&gt;valor 1 = es fijo = 12&amp;nbsp;&lt;/font&gt;&lt;br&gt;&lt;/font&gt;" style="text;html=1;align=center;verticalAlign=middle;resizable=0;points=[];autosize=1;strokeColor=none;fillColor=none;" parent="1" vertex="1">
                    <mxGeometry x="80" y="53" width="220" height="40" as="geometry"/>
                </mxCell>
                <mxCell id="jrKel4YQa3fyWZv_Hwt1-3" value="&lt;font style=&quot;font-size: 18px;&quot;&gt;&lt;font face=&quot;Verdana&quot;&gt;valor 2 = es mutable = aciende por niveles&amp;nbsp;&lt;/font&gt;&lt;br&gt;&lt;/font&gt;" style="text;html=1;align=center;verticalAlign=middle;resizable=0;points=[];autosize=1;strokeColor=none;fillColor=none;" parent="1" vertex="1">
                    <mxGeometry x="80" y="100" width="420" height="40" as="geometry"/>
                </mxCell>
                <mxCell id="jrKel4YQa3fyWZv_Hwt1-4" value="&lt;font style=&quot;font-size: 18px;&quot;&gt;&lt;font face=&quot;Verdana&quot;&gt;valor 3 = fijo = 2&amp;nbsp;&lt;/font&gt;&lt;br&gt;&lt;/font&gt;" style="text;html=1;align=center;verticalAlign=middle;resizable=0;points=[];autosize=1;strokeColor=none;fillColor=none;" parent="1" vertex="1">
                    <mxGeometry x="80" y="170" width="190" height="40" as="geometry"/>
                </mxCell>
                <mxCell id="jrKel4YQa3fyWZv_Hwt1-8" value="" style="edgeStyle=orthogonalEdgeStyle;rounded=0;orthogonalLoop=1;jettySize=auto;html=1;" parent="1" source="jrKel4YQa3fyWZv_Hwt1-5" target="jrKel4YQa3fyWZv_Hwt1-7" edge="1">
                    <mxGeometry relative="1" as="geometry"/>
                </mxCell>
                <mxCell id="jrKel4YQa3fyWZv_Hwt1-5" value="&lt;font style=&quot;font-size: 18px;&quot;&gt;&lt;font face=&quot;Verdana&quot;&gt;valor 4 = mutable&amp;nbsp;&amp;nbsp;&lt;/font&gt;&lt;br&gt;&lt;/font&gt;" style="text;html=1;align=center;verticalAlign=middle;resizable=0;points=[];autosize=1;strokeColor=none;fillColor=none;" parent="1" vertex="1">
                    <mxGeometry x="80" y="230" width="200" height="40" as="geometry"/>
                </mxCell>
                <mxCell id="jrKel4YQa3fyWZv_Hwt1-7" value="n &amp;gt; 10% del total del valor de los productos" style="whiteSpace=wrap;html=1;" parent="1" vertex="1">
                    <mxGeometry x="300" y="400" width="135" height="60" as="geometry"/>
                </mxCell>
                <mxCell id="jrKel4YQa3fyWZv_Hwt1-17" value="" style="edgeStyle=orthogonalEdgeStyle;rounded=0;orthogonalLoop=1;jettySize=auto;html=1;" parent="1" source="jrKel4YQa3fyWZv_Hwt1-9" target="jrKel4YQa3fyWZv_Hwt1-16" edge="1">
                    <mxGeometry relative="1" as="geometry"/>
                </mxCell>
                <mxCell id="jrKel4YQa3fyWZv_Hwt1-9" value="&lt;font style=&quot;font-size: 18px;&quot;&gt;&lt;font face=&quot;Verdana&quot;&gt;valor 5 = promocion&amp;nbsp;&lt;/font&gt;&lt;br&gt;&lt;/font&gt;" style="text;html=1;align=center;verticalAlign=middle;resizable=0;points=[];autosize=1;strokeColor=none;fillColor=none;" parent="1" vertex="1">
                    <mxGeometry x="80" y="290" width="210" height="40" as="geometry"/>
                </mxCell>
                <mxCell id="jrKel4YQa3fyWZv_Hwt1-16" value="1° depende de la cantidad&lt;br&gt;2° depende del precio total" style="whiteSpace=wrap;html=1;" parent="1" vertex="1">
                    <mxGeometry x="112.5" y="400" width="145" height="70" as="geometry"/>
                </mxCell>
                <mxCell id="jrKel4YQa3fyWZv_Hwt1-21" style="edgeStyle=orthogonalEdgeStyle;rounded=0;orthogonalLoop=1;jettySize=auto;html=1;entryX=0.5;entryY=0;entryDx=0;entryDy=0;" parent="1" source="jrKel4YQa3fyWZv_Hwt1-19" target="jrKel4YQa3fyWZv_Hwt1-103" edge="1">
                    <mxGeometry relative="1" as="geometry"/>
                </mxCell>
                <mxCell id="jrKel4YQa3fyWZv_Hwt1-19" value="valor 1, valor 2, valor 3, valor 4, valor 5" style="strokeWidth=2;html=1;shape=mxgraph.flowchart.start_1;whiteSpace=wrap;" parent="1" vertex="1">
                    <mxGeometry x="660.5" y="-80" width="150" height="90" as="geometry"/>
                </mxCell>
                <mxCell id="jrKel4YQa3fyWZv_Hwt1-27" style="edgeStyle=orthogonalEdgeStyle;rounded=0;orthogonalLoop=1;jettySize=auto;html=1;" parent="1" source="jrKel4YQa3fyWZv_Hwt1-20" target="jrKel4YQa3fyWZv_Hwt1-26" edge="1">
                    <mxGeometry relative="1" as="geometry"/>
                </mxCell>
                <mxCell id="jrKel4YQa3fyWZv_Hwt1-20" value="&amp;nbsp;let acc&amp;nbsp; = valor 1 + totalValorApp&lt;br&gt;&lt;br&gt;let total = total en precio&lt;br&gt;&lt;br&gt;let parametroPropina =&amp;nbsp; 10 x total / 100" style="rounded=1;whiteSpace=wrap;html=1;absoluteArcSize=1;arcSize=14;strokeWidth=2;" parent="1" vertex="1">
                    <mxGeometry x="619.25" y="200" width="232.5" height="140" as="geometry"/>
                </mxCell>
                <mxCell id="jrKel4YQa3fyWZv_Hwt1-25" value="" style="edgeStyle=orthogonalEdgeStyle;rounded=0;orthogonalLoop=1;jettySize=auto;html=1;" parent="1" source="jrKel4YQa3fyWZv_Hwt1-24" target="jrKel4YQa3fyWZv_Hwt1-20" edge="1">
                    <mxGeometry relative="1" as="geometry"/>
                </mxCell>
                <mxCell id="jrKel4YQa3fyWZv_Hwt1-24" value="&lt;br&gt;&lt;span style=&quot;color: rgb(240, 240, 240); font-family: Helvetica; font-size: 12px; font-style: normal; font-variant-ligatures: normal; font-variant-caps: normal; font-weight: 400; letter-spacing: normal; orphans: 2; text-align: center; text-indent: 0px; text-transform: none; widows: 2; word-spacing: 0px; -webkit-text-stroke-width: 0px; background-color: rgb(42, 37, 47); text-decoration-thickness: initial; text-decoration-style: initial; text-decoration-color: initial; float: none; display: inline !important;&quot;&gt;acc va a tener el total de unidades para calcular valor 4 / valor 5&lt;/span&gt;&lt;br&gt;" style="rounded=0;whiteSpace=wrap;html=1;" parent="1" vertex="1">
                    <mxGeometry x="445" y="225" width="140" height="90" as="geometry"/>
                </mxCell>
                <mxCell id="jrKel4YQa3fyWZv_Hwt1-29" value="" style="edgeStyle=orthogonalEdgeStyle;rounded=0;orthogonalLoop=1;jettySize=auto;html=1;entryX=0;entryY=0.5;entryDx=0;entryDy=0;entryPerimeter=0;" parent="1" source="jrKel4YQa3fyWZv_Hwt1-26" target="jrKel4YQa3fyWZv_Hwt1-38" edge="1">
                    <mxGeometry relative="1" as="geometry">
                        <mxPoint x="900" y="520" as="targetPoint"/>
                    </mxGeometry>
                </mxCell>
                <mxCell id="jrKel4YQa3fyWZv_Hwt1-31" value="&lt;font style=&quot;font-size: 12px;&quot;&gt;NO&lt;/font&gt;" style="edgeLabel;html=1;align=center;verticalAlign=middle;resizable=0;points=[];" parent="jrKel4YQa3fyWZv_Hwt1-29" vertex="1" connectable="0">
                    <mxGeometry x="0.0588" relative="1" as="geometry">
                        <mxPoint as="offset"/>
                    </mxGeometry>
                </mxCell>
                <mxCell id="jrKel4YQa3fyWZv_Hwt1-35" style="edgeStyle=orthogonalEdgeStyle;rounded=0;orthogonalLoop=1;jettySize=auto;html=1;entryX=0.5;entryY=0;entryDx=0;entryDy=0;" parent="1" source="jrKel4YQa3fyWZv_Hwt1-26" target="jrKel4YQa3fyWZv_Hwt1-34" edge="1">
                    <mxGeometry relative="1" as="geometry"/>
                </mxCell>
                <mxCell id="jrKel4YQa3fyWZv_Hwt1-36" value="&lt;font style=&quot;font-size: 12px;&quot;&gt;SI&lt;/font&gt;" style="edgeLabel;html=1;align=center;verticalAlign=middle;resizable=0;points=[];" parent="jrKel4YQa3fyWZv_Hwt1-35" vertex="1" connectable="0">
                    <mxGeometry x="0.0286" y="-1" relative="1" as="geometry">
                        <mxPoint as="offset"/>
                    </mxGeometry>
                </mxCell>
                <mxCell id="jrKel4YQa3fyWZv_Hwt1-26" value="si hay valor 3" style="strokeWidth=2;html=1;shape=mxgraph.flowchart.decision;whiteSpace=wrap;" parent="1" vertex="1">
                    <mxGeometry x="662.5" y="450" width="145" height="140" as="geometry"/>
                </mxCell>
                <mxCell id="jrKel4YQa3fyWZv_Hwt1-40" value="" style="edgeStyle=orthogonalEdgeStyle;rounded=0;orthogonalLoop=1;jettySize=auto;html=1;" parent="1" source="jrKel4YQa3fyWZv_Hwt1-34" target="jrKel4YQa3fyWZv_Hwt1-39" edge="1">
                    <mxGeometry relative="1" as="geometry"/>
                </mxCell>
                <mxCell id="jrKel4YQa3fyWZv_Hwt1-34" value="total += valor 3" style="rounded=1;whiteSpace=wrap;html=1;absoluteArcSize=1;arcSize=14;strokeWidth=2;" parent="1" vertex="1">
                    <mxGeometry x="685" y="660" width="100" height="100" as="geometry"/>
                </mxCell>
                <mxCell id="jrKel4YQa3fyWZv_Hwt1-51" style="edgeStyle=orthogonalEdgeStyle;rounded=0;orthogonalLoop=1;jettySize=auto;html=1;entryX=0.674;entryY=0.129;entryDx=0;entryDy=0;entryPerimeter=0;" parent="1" source="jrKel4YQa3fyWZv_Hwt1-38" target="jrKel4YQa3fyWZv_Hwt1-47" edge="1">
                    <mxGeometry relative="1" as="geometry">
                        <mxPoint x="950" y="1072.4000244140625" as="targetPoint"/>
                        <Array as="points">
                            <mxPoint x="950" y="821"/>
                            <mxPoint x="951" y="821"/>
                            <mxPoint x="951" y="1032"/>
                        </Array>
                    </mxGeometry>
                </mxCell>
                <mxCell id="jrKel4YQa3fyWZv_Hwt1-52" value="&lt;font style=&quot;font-size: 12px;&quot;&gt;SI&lt;/font&gt;" style="edgeLabel;html=1;align=center;verticalAlign=middle;resizable=0;points=[];" parent="jrKel4YQa3fyWZv_Hwt1-51" vertex="1" connectable="0">
                    <mxGeometry x="-0.6284" relative="1" as="geometry">
                        <mxPoint as="offset"/>
                    </mxGeometry>
                </mxCell>
                <mxCell id="jrKel4YQa3fyWZv_Hwt1-66" style="edgeStyle=orthogonalEdgeStyle;rounded=0;orthogonalLoop=1;jettySize=auto;html=1;exitX=1;exitY=0.5;exitDx=0;exitDy=0;exitPerimeter=0;entryX=0.736;entryY=0.262;entryDx=0;entryDy=0;entryPerimeter=0;" parent="1" source="jrKel4YQa3fyWZv_Hwt1-38" target="jrKel4YQa3fyWZv_Hwt1-57" edge="1">
                    <mxGeometry relative="1" as="geometry">
                        <Array as="points">
                            <mxPoint x="1020" y="520"/>
                            <mxPoint x="1020" y="1071"/>
                        </Array>
                    </mxGeometry>
                </mxCell>
                <mxCell id="jrKel4YQa3fyWZv_Hwt1-67" value="&lt;font style=&quot;font-size: 14px;&quot;&gt;NO&lt;/font&gt;" style="edgeLabel;html=1;align=center;verticalAlign=middle;resizable=0;points=[];" parent="jrKel4YQa3fyWZv_Hwt1-66" vertex="1" connectable="0">
                    <mxGeometry x="-0.2732" relative="1" as="geometry">
                        <mxPoint as="offset"/>
                    </mxGeometry>
                </mxCell>
                <mxCell id="jrKel4YQa3fyWZv_Hwt1-38" value="Hay valor 4" style="strokeWidth=2;html=1;shape=mxgraph.flowchart.decision;whiteSpace=wrap;" parent="1" vertex="1">
                    <mxGeometry x="900" y="470" width="100" height="100" as="geometry"/>
                </mxCell>
                <mxCell id="jrKel4YQa3fyWZv_Hwt1-41" style="edgeStyle=orthogonalEdgeStyle;rounded=0;orthogonalLoop=1;jettySize=auto;html=1;entryX=0.5;entryY=0;entryDx=0;entryDy=0;entryPerimeter=0;" parent="1" source="jrKel4YQa3fyWZv_Hwt1-39" edge="1" target="jrKel4YQa3fyWZv_Hwt1-57">
                    <mxGeometry relative="1" as="geometry">
                        <mxPoint x="880" y="890" as="targetPoint"/>
                    </mxGeometry>
                </mxCell>
                <mxCell id="jrKel4YQa3fyWZv_Hwt1-42" value="&lt;font style=&quot;font-size: 12px;&quot;&gt;NO&lt;/font&gt;" style="edgeLabel;html=1;align=center;verticalAlign=middle;resizable=0;points=[];" parent="jrKel4YQa3fyWZv_Hwt1-41" vertex="1" connectable="0">
                    <mxGeometry x="0.0901" relative="1" as="geometry">
                        <mxPoint as="offset"/>
                    </mxGeometry>
                </mxCell>
                <mxCell id="jrKel4YQa3fyWZv_Hwt1-43" style="edgeStyle=orthogonalEdgeStyle;rounded=0;orthogonalLoop=1;jettySize=auto;html=1;entryX=0.5;entryY=0;entryDx=0;entryDy=0;entryPerimeter=0;" parent="1" source="jrKel4YQa3fyWZv_Hwt1-39" target="jrKel4YQa3fyWZv_Hwt1-47" edge="1">
                    <mxGeometry relative="1" as="geometry">
                        <mxPoint x="735" y="1000" as="targetPoint"/>
                    </mxGeometry>
                </mxCell>
                <mxCell id="jrKel4YQa3fyWZv_Hwt1-44" value="&lt;font style=&quot;font-size: 12px;&quot;&gt;SI&lt;/font&gt;" style="edgeLabel;html=1;align=center;verticalAlign=middle;resizable=0;points=[];" parent="jrKel4YQa3fyWZv_Hwt1-43" vertex="1" connectable="0">
                    <mxGeometry x="-0.0892" y="-2" relative="1" as="geometry">
                        <mxPoint as="offset"/>
                    </mxGeometry>
                </mxCell>
                <mxCell id="jrKel4YQa3fyWZv_Hwt1-39" value="Hay valor 4" style="rhombus;whiteSpace=wrap;html=1;rounded=1;arcSize=14;strokeWidth=2;" parent="1" vertex="1">
                    <mxGeometry x="695" y="850" width="80" height="80" as="geometry"/>
                </mxCell>
                <mxCell id="jrKel4YQa3fyWZv_Hwt1-49" style="edgeStyle=orthogonalEdgeStyle;rounded=0;orthogonalLoop=1;jettySize=auto;html=1;entryX=0;entryY=0.5;entryDx=0;entryDy=0;entryPerimeter=0;" parent="1" source="jrKel4YQa3fyWZv_Hwt1-47" target="jrKel4YQa3fyWZv_Hwt1-57" edge="1">
                    <mxGeometry relative="1" as="geometry">
                        <mxPoint x="900" y="1095" as="targetPoint"/>
                    </mxGeometry>
                </mxCell>
                <mxCell id="jrKel4YQa3fyWZv_Hwt1-50" value="NO" style="edgeLabel;html=1;align=center;verticalAlign=middle;resizable=0;points=[];" parent="jrKel4YQa3fyWZv_Hwt1-49" vertex="1" connectable="0">
                    <mxGeometry x="-0.0542" relative="1" as="geometry">
                        <mxPoint as="offset"/>
                    </mxGeometry>
                </mxCell>
                <mxCell id="jrKel4YQa3fyWZv_Hwt1-55" style="edgeStyle=orthogonalEdgeStyle;rounded=0;orthogonalLoop=1;jettySize=auto;html=1;" parent="1" source="jrKel4YQa3fyWZv_Hwt1-47" target="jrKel4YQa3fyWZv_Hwt1-54" edge="1">
                    <mxGeometry relative="1" as="geometry"/>
                </mxCell>
                <mxCell id="jrKel4YQa3fyWZv_Hwt1-47" value="valor 4 &amp;gt; parametroPropina&amp;nbsp;" style="strokeWidth=2;html=1;shape=mxgraph.flowchart.decision;whiteSpace=wrap;" parent="1" vertex="1">
                    <mxGeometry x="665" y="1010" width="145" height="170" as="geometry"/>
                </mxCell>
                <mxCell id="jrKel4YQa3fyWZv_Hwt1-60" style="edgeStyle=orthogonalEdgeStyle;rounded=0;orthogonalLoop=1;jettySize=auto;html=1;entryX=0.5;entryY=0;entryDx=0;entryDy=0;entryPerimeter=0;" parent="1" source="jrKel4YQa3fyWZv_Hwt1-54" target="jrKel4YQa3fyWZv_Hwt1-59" edge="1">
                    <mxGeometry relative="1" as="geometry"/>
                </mxCell>
                <mxCell id="jrKel4YQa3fyWZv_Hwt1-54" value="total += valor 4" style="rounded=1;whiteSpace=wrap;html=1;absoluteArcSize=1;arcSize=14;strokeWidth=2;" parent="1" vertex="1">
                    <mxGeometry x="688" y="1260" width="100" height="100" as="geometry"/>
                </mxCell>
                <mxCell id="jrKel4YQa3fyWZv_Hwt1-72" style="edgeStyle=orthogonalEdgeStyle;rounded=0;orthogonalLoop=1;jettySize=auto;html=1;entryX=1;entryY=0.5;entryDx=0;entryDy=0;" parent="1" source="jrKel4YQa3fyWZv_Hwt1-57" target="jrKel4YQa3fyWZv_Hwt1-68" edge="1">
                    <mxGeometry relative="1" as="geometry">
                        <mxPoint x="960" y="1640" as="targetPoint"/>
                        <Array as="points">
                            <mxPoint x="960" y="1640"/>
                        </Array>
                    </mxGeometry>
                </mxCell>
                <mxCell id="jrKel4YQa3fyWZv_Hwt1-73" value="&lt;font style=&quot;font-size: 14px;&quot;&gt;SI&lt;/font&gt;" style="edgeLabel;html=1;align=center;verticalAlign=middle;resizable=0;points=[];" parent="jrKel4YQa3fyWZv_Hwt1-72" vertex="1" connectable="0">
                    <mxGeometry x="-0.6906" relative="1" as="geometry">
                        <mxPoint as="offset"/>
                    </mxGeometry>
                </mxCell>
                <mxCell id="jrKel4YQa3fyWZv_Hwt1-57" value="Hay valor 5" style="strokeWidth=2;html=1;shape=mxgraph.flowchart.decision;whiteSpace=wrap;" parent="1" vertex="1">
                    <mxGeometry x="910" y="1045" width="100" height="100" as="geometry"/>
                </mxCell>
                <mxCell id="jrKel4YQa3fyWZv_Hwt1-69" style="edgeStyle=orthogonalEdgeStyle;rounded=0;orthogonalLoop=1;jettySize=auto;html=1;entryX=0.5;entryY=0;entryDx=0;entryDy=0;" parent="1" source="jrKel4YQa3fyWZv_Hwt1-59" target="jrKel4YQa3fyWZv_Hwt1-68" edge="1">
                    <mxGeometry relative="1" as="geometry"/>
                </mxCell>
                <mxCell id="jrKel4YQa3fyWZv_Hwt1-70" value="&lt;font style=&quot;font-size: 14px;&quot;&gt;SI&lt;/font&gt;" style="edgeLabel;html=1;align=center;verticalAlign=middle;resizable=0;points=[];" parent="jrKel4YQa3fyWZv_Hwt1-69" vertex="1" connectable="0">
                    <mxGeometry x="-0.385" y="1" relative="1" as="geometry">
                        <mxPoint as="offset"/>
                    </mxGeometry>
                </mxCell>
                <mxCell id="jrKel4YQa3fyWZv_Hwt1-76" style="edgeStyle=orthogonalEdgeStyle;rounded=0;orthogonalLoop=1;jettySize=auto;html=1;entryX=0;entryY=0.5;entryDx=0;entryDy=0;entryPerimeter=0;" parent="1" source="jrKel4YQa3fyWZv_Hwt1-59" target="jrKel4YQa3fyWZv_Hwt1-78" edge="1">
                    <mxGeometry relative="1" as="geometry">
                        <mxPoint x="840" y="1465" as="targetPoint"/>
                    </mxGeometry>
                </mxCell>
                <mxCell id="jrKel4YQa3fyWZv_Hwt1-77" value="&lt;font style=&quot;font-size: 14px;&quot;&gt;NO&lt;/font&gt;" style="edgeLabel;html=1;align=center;verticalAlign=middle;resizable=0;points=[];" parent="jrKel4YQa3fyWZv_Hwt1-76" vertex="1" connectable="0">
                    <mxGeometry x="-0.2769" y="-1" relative="1" as="geometry">
                        <mxPoint as="offset"/>
                    </mxGeometry>
                </mxCell>
                <mxCell id="jrKel4YQa3fyWZv_Hwt1-59" value="Hay valor 5" style="strokeWidth=2;html=1;shape=mxgraph.flowchart.decision;whiteSpace=wrap;" parent="1" vertex="1">
                    <mxGeometry x="688" y="1420" width="100" height="90" as="geometry"/>
                </mxCell>
                <mxCell id="jrKel4YQa3fyWZv_Hwt1-80" style="edgeStyle=orthogonalEdgeStyle;rounded=0;orthogonalLoop=1;jettySize=auto;html=1;entryX=0.5;entryY=0;entryDx=0;entryDy=0;entryPerimeter=0;" parent="1" source="jrKel4YQa3fyWZv_Hwt1-68" target="jrKel4YQa3fyWZv_Hwt1-71" edge="1">
                    <mxGeometry relative="1" as="geometry"/>
                </mxCell>
                <mxCell id="jrKel4YQa3fyWZv_Hwt1-68" value="Que tipo promocion tiene" style="rounded=1;whiteSpace=wrap;html=1;absoluteArcSize=1;arcSize=14;strokeWidth=2;" parent="1" vertex="1">
                    <mxGeometry x="688" y="1590" width="100" height="100" as="geometry"/>
                </mxCell>
                <mxCell id="jrKel4YQa3fyWZv_Hwt1-81" style="edgeStyle=orthogonalEdgeStyle;rounded=0;orthogonalLoop=1;jettySize=auto;html=1;" parent="1" source="jrKel4YQa3fyWZv_Hwt1-71" edge="1">
                    <mxGeometry relative="1" as="geometry">
                        <mxPoint x="738" y="1960" as="targetPoint"/>
                    </mxGeometry>
                </mxCell>
                <mxCell id="jrKel4YQa3fyWZv_Hwt1-82" value="&lt;font style=&quot;font-size: 14px;&quot;&gt;SI&lt;/font&gt;" style="edgeLabel;html=1;align=center;verticalAlign=middle;resizable=0;points=[];" parent="jrKel4YQa3fyWZv_Hwt1-81" vertex="1" connectable="0">
                    <mxGeometry x="-0.21" y="1" relative="1" as="geometry">
                        <mxPoint as="offset"/>
                    </mxGeometry>
                </mxCell>
                <mxCell id="jrKel4YQa3fyWZv_Hwt1-91" style="edgeStyle=orthogonalEdgeStyle;rounded=0;orthogonalLoop=1;jettySize=auto;html=1;entryX=0;entryY=0.5;entryDx=0;entryDy=0;entryPerimeter=0;" parent="1" source="jrKel4YQa3fyWZv_Hwt1-71" target="jrKel4YQa3fyWZv_Hwt1-92" edge="1">
                    <mxGeometry relative="1" as="geometry">
                        <mxPoint x="890" y="1820" as="targetPoint"/>
                    </mxGeometry>
                </mxCell>
                <mxCell id="jrKel4YQa3fyWZv_Hwt1-93" value="&lt;font style=&quot;font-size: 14px;&quot;&gt;NO&lt;/font&gt;" style="edgeLabel;html=1;align=center;verticalAlign=middle;resizable=0;points=[];" parent="jrKel4YQa3fyWZv_Hwt1-91" vertex="1" connectable="0">
                    <mxGeometry x="-0.3122" y="4" relative="1" as="geometry">
                        <mxPoint x="1" as="offset"/>
                    </mxGeometry>
                </mxCell>
                <mxCell id="jrKel4YQa3fyWZv_Hwt1-71" value="es promocion por cantidad" style="strokeWidth=2;html=1;shape=mxgraph.flowchart.decision;whiteSpace=wrap;" parent="1" vertex="1">
                    <mxGeometry x="670.5" y="1760" width="135" height="120" as="geometry"/>
                </mxCell>
                <mxCell id="jrKel4YQa3fyWZv_Hwt1-78" value="return total" style="strokeWidth=2;html=1;shape=mxgraph.flowchart.terminator;whiteSpace=wrap;" parent="1" vertex="1">
                    <mxGeometry x="850" y="1435" width="100" height="60" as="geometry"/>
                </mxCell>
                <mxCell id="jrKel4YQa3fyWZv_Hwt1-86" style="edgeStyle=orthogonalEdgeStyle;rounded=0;orthogonalLoop=1;jettySize=auto;html=1;entryX=0.5;entryY=0;entryDx=0;entryDy=0;" parent="1" source="jrKel4YQa3fyWZv_Hwt1-84" target="jrKel4YQa3fyWZv_Hwt1-85" edge="1">
                    <mxGeometry relative="1" as="geometry"/>
                </mxCell>
                <mxCell id="jrKel4YQa3fyWZv_Hwt1-87" value="&lt;font style=&quot;font-size: 14px;&quot;&gt;SI&lt;/font&gt;" style="edgeLabel;html=1;align=center;verticalAlign=middle;resizable=0;points=[];" parent="jrKel4YQa3fyWZv_Hwt1-86" vertex="1" connectable="0">
                    <mxGeometry x="-0.2774" y="-1" relative="1" as="geometry">
                        <mxPoint as="offset"/>
                    </mxGeometry>
                </mxCell>
                <mxCell id="jrKel4YQa3fyWZv_Hwt1-84" value="acc &amp;gt; 20" style="strokeWidth=2;html=1;shape=mxgraph.flowchart.decision;whiteSpace=wrap;" parent="1" vertex="1">
                    <mxGeometry x="688" y="1968" width="100" height="100" as="geometry"/>
                </mxCell>
                <mxCell id="jrKel4YQa3fyWZv_Hwt1-89" style="edgeStyle=orthogonalEdgeStyle;rounded=0;orthogonalLoop=1;jettySize=auto;html=1;" parent="1" source="jrKel4YQa3fyWZv_Hwt1-85" target="jrKel4YQa3fyWZv_Hwt1-88" edge="1">
                    <mxGeometry relative="1" as="geometry"/>
                </mxCell>
                <mxCell id="jrKel4YQa3fyWZv_Hwt1-85" value="total -= ( 20 x total / 100 )&amp;nbsp;" style="rounded=1;whiteSpace=wrap;html=1;absoluteArcSize=1;arcSize=14;strokeWidth=2;" parent="1" vertex="1">
                    <mxGeometry x="660.5" y="2130" width="155" height="120" as="geometry"/>
                </mxCell>
                <mxCell id="jrKel4YQa3fyWZv_Hwt1-88" value="return total" style="strokeWidth=2;html=1;shape=mxgraph.flowchart.terminator;whiteSpace=wrap;" parent="1" vertex="1">
                    <mxGeometry x="688" y="2320" width="100" height="60" as="geometry"/>
                </mxCell>
                <mxCell id="jrKel4YQa3fyWZv_Hwt1-94" style="edgeStyle=orthogonalEdgeStyle;rounded=0;orthogonalLoop=1;jettySize=auto;html=1;exitX=1;exitY=0.5;exitDx=0;exitDy=0;exitPerimeter=0;entryX=0;entryY=0.5;entryDx=0;entryDy=0;entryPerimeter=0;" parent="1" source="jrKel4YQa3fyWZv_Hwt1-92" target="jrKel4YQa3fyWZv_Hwt1-95" edge="1">
                    <mxGeometry relative="1" as="geometry">
                        <mxPoint x="1060" y="1820" as="targetPoint"/>
                    </mxGeometry>
                </mxCell>
                <mxCell id="jrKel4YQa3fyWZv_Hwt1-97" value="&lt;font style=&quot;font-size: 14px;&quot;&gt;NO&lt;/font&gt;" style="edgeLabel;html=1;align=center;verticalAlign=middle;resizable=0;points=[];" parent="jrKel4YQa3fyWZv_Hwt1-94" vertex="1" connectable="0">
                    <mxGeometry x="0.0082" y="-1" relative="1" as="geometry">
                        <mxPoint x="-1" as="offset"/>
                    </mxGeometry>
                </mxCell>
                <mxCell id="jrKel4YQa3fyWZv_Hwt1-98" style="edgeStyle=orthogonalEdgeStyle;rounded=0;orthogonalLoop=1;jettySize=auto;html=1;entryX=0.5;entryY=0;entryDx=0;entryDy=0;" parent="1" source="jrKel4YQa3fyWZv_Hwt1-92" target="jrKel4YQa3fyWZv_Hwt1-100" edge="1">
                    <mxGeometry relative="1" as="geometry">
                        <mxPoint x="950" y="1960" as="targetPoint"/>
                    </mxGeometry>
                </mxCell>
                <mxCell id="jrKel4YQa3fyWZv_Hwt1-99" value="&lt;font style=&quot;font-size: 14px;&quot;&gt;SI&lt;/font&gt;" style="edgeLabel;html=1;align=center;verticalAlign=middle;resizable=0;points=[];" parent="jrKel4YQa3fyWZv_Hwt1-98" vertex="1" connectable="0">
                    <mxGeometry x="-0.1735" relative="1" as="geometry">
                        <mxPoint as="offset"/>
                    </mxGeometry>
                </mxCell>
                <mxCell id="jrKel4YQa3fyWZv_Hwt1-92" value="total &amp;gt; 100" style="strokeWidth=2;html=1;shape=mxgraph.flowchart.decision;whiteSpace=wrap;" parent="1" vertex="1">
                    <mxGeometry x="900" y="1770" width="100" height="100" as="geometry"/>
                </mxCell>
                <mxCell id="jrKel4YQa3fyWZv_Hwt1-95" value="return total" style="strokeWidth=2;html=1;shape=mxgraph.flowchart.terminator;whiteSpace=wrap;" parent="1" vertex="1">
                    <mxGeometry x="1069" y="1790" width="100" height="60" as="geometry"/>
                </mxCell>
                <mxCell id="jrKel4YQa3fyWZv_Hwt1-102" style="edgeStyle=orthogonalEdgeStyle;rounded=0;orthogonalLoop=1;jettySize=auto;html=1;entryX=0.5;entryY=0;entryDx=0;entryDy=0;entryPerimeter=0;" parent="1" source="jrKel4YQa3fyWZv_Hwt1-100" target="jrKel4YQa3fyWZv_Hwt1-101" edge="1">
                    <mxGeometry relative="1" as="geometry"/>
                </mxCell>
                <mxCell id="jrKel4YQa3fyWZv_Hwt1-100" value="total -= (10 x total / 100 )" style="rounded=1;whiteSpace=wrap;html=1;absoluteArcSize=1;arcSize=14;strokeWidth=2;" parent="1" vertex="1">
                    <mxGeometry x="875" y="1968" width="150" height="100" as="geometry"/>
                </mxCell>
                <mxCell id="jrKel4YQa3fyWZv_Hwt1-101" value="return total" style="strokeWidth=2;html=1;shape=mxgraph.flowchart.terminator;whiteSpace=wrap;" parent="1" vertex="1">
                    <mxGeometry x="900" y="2150" width="100" height="60" as="geometry"/>
                </mxCell>
                <mxCell id="jrKel4YQa3fyWZv_Hwt1-104" style="edgeStyle=orthogonalEdgeStyle;rounded=0;orthogonalLoop=1;jettySize=auto;html=1;entryX=0.5;entryY=0;entryDx=0;entryDy=0;" parent="1" source="jrKel4YQa3fyWZv_Hwt1-103" target="jrKel4YQa3fyWZv_Hwt1-20" edge="1">
                    <mxGeometry relative="1" as="geometry"/>
                </mxCell>
                <mxCell id="jrKel4YQa3fyWZv_Hwt1-103" value="let totalValorApp = cantidad de valor 2" style="rounded=1;whiteSpace=wrap;html=1;absoluteArcSize=1;arcSize=14;strokeWidth=2;" parent="1" vertex="1">
                    <mxGeometry x="674.63" y="70" width="120.75" height="60" as="geometry"/>
                </mxCell>
                <mxCell id="7" style="edgeStyle=none;html=1;entryX=0.5;entryY=0;entryDx=0;entryDy=0;" edge="1" parent="1" source="5" target="6">
                    <mxGeometry relative="1" as="geometry"/>
                </mxCell>
                <mxCell id="5" value="( promocion, totalPrice )" style="rounded=1;whiteSpace=wrap;html=1;absoluteArcSize=1;arcSize=14;strokeWidth=2;" vertex="1" parent="1">
                    <mxGeometry x="380" y="1780" width="100" height="100" as="geometry"/>
                </mxCell>
                <mxCell id="6" value="if (promocion === 1 ) { &lt;br&gt;let descuento = 20 x totalPrice / 100&lt;br&gt;}" style="rounded=1;whiteSpace=wrap;html=1;absoluteArcSize=1;arcSize=14;strokeWidth=2;" vertex="1" parent="1">
                    <mxGeometry x="325" y="1966.5" width="210" height="123.5" as="geometry"/>
                </mxCell>
            </root>
        </mxGraphModel>
    </diagram>
</mxfile>